<?xml version="1.0" encoding="utf-8"?>
<!-- Generator: Adobe Illustrator 25.0.1, SVG Export Plug-In . SVG Version: 6.00 Build 0)  -->
<svg version="1.0" id="katman_1" xmlns="http://www.w3.org/2000/svg" xmlns:xlink="http://www.w3.org/1999/xlink" x="0px" y="0px"
	 viewBox="0 0 800 600" style="enable-background:new 0 0 800 600;" xml:space="preserve">
<style type="text/css">
	.st0{fill:#231F20;}
</style>
<g id="b02a34d4-da44-413d-9527-cac88d7966c6">
	<path id="f59a81d2-88f7-4244-ad49-edd5ab7090d4" class="st0" d="M265.3,377.7h264.6V112.9H265.3V377.7z M267.3,114.9h260.6v260.8
		H267.3V114.9z M281.1,169.5v-40.8h56.5C315.4,137,295.9,151.1,281.1,169.5z M350.5,128.7h163.7v14.9c-14.4-3.4-26.9,2.9-38.3,9.4
		c-24.2-20.7-62.8-11.4-89.1-1.8c-14.6,6-35.3,17.3-34.9,36.3c0.4,6.5,4.2,12.3,10,15.2c4.1,2.6,8.9,3.5,13,6
		c0.5,0.4,0.6,1.1,0.3,1.6c-2.8,2-6.1,3.3-9.5,3.6c-14.7,2.7-29,7.4-42.5,13.7c-6.4,3-12.5,6.4-18.4,10.4
		c-8.7-5.2-16.7-11.6-23.8-19v-40.8c13.4-19.4,32.3-34.5,54.2-43.2L350.5,128.7z M380.3,209.8c-0.2-3.2-4-4.7-6-7.3
		c-5-5.2-5.9-13.5-3.7-20.3c6.6-20.2,28.2-29.3,46.5-34c17.5-4.5,39.8-4.3,54.2,7.2c-36.3,21.7-57.7,59.6-74.3,94.3
		c-26.1,3.1-54.7,2.3-78.5-5.2c15.4-17.4,36.1-23.1,56.3-29.3C376.9,214.2,380.3,212.8,380.3,209.8z M514.2,148.5v39.3
		c-27.4,31.1-61.1,48.9-97.9,58.7c15.8-29.8,33.2-59.2,60.2-84.3c4.5,5.8,5.8,13.5,3.5,20.4c-1.8,6.1-6.2,13.1-12.8,15.1
		c-2.4,0.5-5.5,0-6.8,2.6c-0.4,0.9-0.4,1.9,0,2.8c0.9,1.4,2.5,2.2,4.1,2c10.6-1,17.4-12.5,20.2-21.3c2.8-8.9,0-18.1-4-25.6
		C490.3,151.2,501.4,145.5,514.2,148.5z M442.6,277.6c-0.8-6.1-1.5-13-7.1-16.6c-1.1-0.4-2.3-0.4-3.4,0c-1.1,0.6-1.8,1.7-1.9,3
		c0.3,2.8,3.4,4.5,4.8,6.9c3.7,6.3,1.7,15.3-0.9,21.5c-4.9,11.7-15.4,21.9-25.5,30.9c-12.7-5.4-24.7-12.1-36.1-19.9
		c17.6-14.5,29.9-32.7,40.2-51c37.8-7.8,72.1-24.4,101.3-53.3v113.1c-21.6,14.9-47,23.8-75.1,18.9c-8.5-1.5-16.8-3.5-25-6.1
		C428.7,312,442.5,297.4,442.6,277.6L442.6,277.6z M281,226.2c6,5.6,12.5,10.7,19.5,15.1c-7.3,6-13.8,12.9-19.4,20.6L281,226.2z
		 M315,248.3c23.9,8.5,52.9,9.5,79.6,6.5c-7.2,15.9-14.7,31.7-27.4,45.4c-11.6-7.3-23.7-16.1-38.9-13c-4.7,1.1-8.7,4.3-10.7,8.7
		c-1.7,4.1-1.1,8.8,1.6,12.3c5.7,6.2,13.5,7.8,21.7,7.8c9.8-0.2,19.3-3.4,27.2-9.1c10.9,7.5,22,14.8,33.5,21.2
		c-19.1,10.1-41.2,16.5-64.8,13c-17.4-2.6-36.8-16-40.5-34.3C291.8,284.2,301.7,264.8,315,248.3z M332.4,291.3
		c12.2-0.5,21.3,6.2,31.1,11.9c-10,7.6-26.3,10.8-37.7,4c-3-2-4.4-5.7-3.4-9.2C323.6,293.6,328.3,291.8,332.4,291.3z M479.6,342
		c12.9-4.3,24.6-11.4,34.6-20.6v40.3H281v-43.5c20.5,21.6,46.1,32.2,76.2,29.3c17.3-2,34-7.7,49-16.6
		C427.6,342.1,454.5,350.6,479.6,342L479.6,342z"/>
	<path id="a6abf02c-36f2-4d67-bff0-2e70e1b50b8a" class="st0" d="M291.6,422.5h-28.8v-2.6h28.8V422.5z M181.9,445.2
		c-1.6-2.8-1.4-6.3,0.4-8.9c2.6-3.3,6.8-4.7,10.8-3.8c4,1,7.2,3.9,8.6,7.8l3.1-1.5l-0.7-1.9c-1.7-3.2-4.4-5.7-7.8-7.1
		c-6.2-2.1-13-0.8-17.9,3.5c-3.7,3.6-5.1,8.9-3.5,13.8c5,11,18.4,11.1,24.4,21.2c1.5,3,1.3,6.6-0.5,9.5c-3.6,4.2-9.3,5.9-14.5,4.2
		c-3.9-1.3-7-4.3-8.4-8.2c-1.2,0.3-2.4,0.6-3.6,1c1.1,3,3,5.7,5.5,7.8c5.3,3.7,12.1,4.6,18.1,2.3c5.4-1.7,9.5-6.3,10.6-11.8
		C208.5,457.1,189.3,455.5,181.9,445.2z M131.5,485.1h28.1v-3.5h-20.9v-24.2h18.3v-3.4h-18.4v-20.1h20.9v-3.5h-28L131.5,485.1z
		 M214.1,433.7h15.5V485h7.3v-51.3h15.5v-3.5h-38.4L214.1,433.7z M264.5,485.1h28.3v-3.5h-20.9v-24.2h18.1v-3.4h-18.1v-20.1h20.9
		v-3.5h-28.3V485.1z M309.9,485.1h28.1v-3.5h-20.7v-24.2h18.1v-3.4h-18.1v-20.1h20.9v-3.5h-28.2L309.9,485.1z M385,430.2h-7.3v54.9
		h28.1v-3.5h-20.7L385,430.2z M439.8,430.2l24,54.7h-8.7c-3.4-7.8-6.6-15.9-10-23.8l-0.3-0.2h-17.3l-10.7,24H412l24.9-54.8
		L439.8,430.2z M443.4,457.2l-7-16.2l-7.4,16.2H443.4z M509.9,460.1c0.5,8-0.2,15.8-7,20.5c-4.7,3-10.6,3.3-15.5,0.6
		c-4.2-2.7-6.9-7.2-7.3-12.2v-38.9h-7.2v35.5c-0.2,5.5,1.8,10.8,5.4,14.8c5.6,6.2,15.1,7.3,22.8,4.7c7-2.4,11.9-8.7,12.7-16v-39h-4
		L509.9,460.1z M574.7,457.6c0.1,10.3-5.7,19.8-14.8,24.5c-8,4.5-18.7,2.6-28.5,3v-54.8c9.1,0.5,19.4-1.5,27.3,2.2
		c10.1,4.2,16.6,14.3,16.1,25.3L574.7,457.6z M564.3,444.6c-4.5-10-15.2-11.7-25.6-11v47.8c7.9,0.2,15.9,0.4,21.3-5.3
		c7.8-8,8.4-21.5,4.3-31.3L564.3,444.6z M589.2,485h28.2v-3.5h-20.7v-24.2h18.1v-3.3h-18.1v-20.1h20.7v-3.5h-28.1L589.2,485z
		 M668,485h-7.2l-12.4-26.1l-0.3-0.2h-6.9v26.5h-7.1v-54.9c10.5,0.4,22.5-2.3,29.5,6.1c3,4.3,3.3,9.9,0.8,14.5
		c-2.2,3.3-5.6,5.6-9.5,6.4v0.5L668,485z M658.5,449.7c1.6-3.1,1.8-6.8,0.3-10c-3.3-6.4-10.7-6-17.4-6v21.8
		C648,455.8,655,455.8,658.5,449.7L658.5,449.7z"/>
</g>
</svg>
